Motion_mu04
version=1
nRows=6
nColumns=43
inDegrees=yes
endheader
time	pelvis_tilt	pelvis_list	pelvis_rotation	pelvis_tx	pelvis_ty	pelvis_tz	hip_flexion_r	hip_adduction_r	hip_rotation_r	knee_angle_r	ankle_angle_r	subtalar_angle_r	mtp_angle_r	hip_flexion_l	hip_adduction_l	hip_rotation_l	knee_angle_l	ankle_angle_l	subtalar_angle_l	mtp_angle_l	lumbar_extension	lumbar_bending	lumbar_rotation	neck_flexion	neck_lateral_bending	neck_rotation	arm_flex_r	arm_add_r	arm_rot_r	elbow_flex_r	pro_sup_r	wrist_flex_r	wrist_dev_r	hand_finger_flex_r	arm_flex_l	arm_add_l	arm_rot_l	elbow_flex_l	pro_sup_l	wrist_flex_l	wrist_dev_l	hand_finger_flex_l
      0.00250000	      0.83377624	      4.48230295	    -88.42652826	     -0.02999609	      0.96683097	      0.75081146	      9.02595080	     -0.46005016	    -10.48272815	    -11.41318877	      4.15187442	      5.54515715	      7.27082546	     -0.93844972	     -8.33215573	     -8.39237820	    -17.89679364	     -1.47623099	     22.53761146	     25.75752302	     -2.77473106	     -1.73853096	      3.10415482	     34.96623001	     -5.22446991	    -13.68631959	    -29.29737861	   -138.89499679	   -118.43435447	     55.73652802	    111.18252803	     23.17078461	     -6.31151794	    -38.01043588	    143.47944071	    -26.96406310	     48.46614192	     44.89125179	    115.29555685	     16.82094372	     -0.94798284	    -26.41895204
      0.00500000	      0.85891012	      4.50990711	    -88.43009523	     -0.03070997	      0.96715741	      0.75178078	      8.98392358	     -0.43991488	    -10.47944946	    -11.42440427	      4.16075749	      5.55095414	      7.27344944	     -0.94767633	     -8.36224251	     -8.38099277	    -17.90920270	     -1.47392106	     22.54120041	     25.76280184	     -2.72973208	     -1.80127016	      3.10477741	     34.95126124	     -5.21447461	    -13.68572955	    -29.26217670	   -138.93954339	   -118.43218783	     55.72693347	    111.18563137	     23.17810665	     -6.31899042	    -38.01066642	    143.50105183	    -26.96600709	     48.46398221	     44.88601953	    115.28678684	     16.82746111	     -0.93704760	    -26.42570821
      0.00750000	      1.11082705	      4.88124602	    -88.53425435	     -0.03109461	      0.96668611	      0.75276912	      9.24142343	     -0.74789321	    -10.69645040	    -11.30994901	      4.55307552	      6.67194965	      7.70959105	     -0.58019304	     -8.08150306	     -8.22944025	    -17.93860888	     -1.79214299	     22.47260772	     27.88697352	     -2.28065791	     -2.05956529	      3.17663866	     34.64419711	     -5.19033069	    -13.61969920	    -29.11149982	   -139.14215092	   -118.32934410	     55.32202989	    112.43588123	     24.23719108	     -7.46450429	    -39.19281918	    144.05250702	    -27.04979930	     49.74838528	     44.64164421	    111.48297461	     18.67110641	      0.74724667	    -30.42219303
      0.01000000	      1.13223905	      4.90758955	    -88.53198825	     -0.03176346	      0.96700213	      0.75374319	      9.19398767	     -0.72804770	    -10.69885250	    -11.32058702	      4.55112961	      6.66828377	      7.70956877	     -0.58560738	     -8.11101893	     -8.22289845	    -17.95456788	     -1.80612666	     22.47365119	     27.88761323	     -2.23872422	     -2.11525580	      3.17871857	     34.64314270	     -5.18432975	    -13.61915143	    -29.07285215	   -139.18574985	   -118.32982400	     55.32114449	    112.43410578	     24.24343908	     -7.46238002	    -39.19064530	    144.07488656	    -27.04876134	     49.74482922	     44.64333079	    111.48479632	     18.67369535	      0.74533659	    -30.42534645
      0.01250000	      1.24629678	      4.98938051	    -88.56891346	     -0.03227140	      0.96708547	      0.75453159	      9.06230321	     -0.78945790	    -10.71737831	    -10.97588631	      4.56601435	      6.61995111	      7.71191071	     -0.43736221	     -8.03163326	     -8.17042378	    -18.12781071	     -2.13182001	     22.55243253	     27.89280073	     -2.16974126	     -2.21537978	      3.19601534	     34.58842233	     -5.08454155	    -13.59403546	    -28.83896094	   -139.42801379	   -118.10202876	     55.03334013	    112.42429709	     24.48178244	     -7.37218956	    -39.10779002	    144.22876620	    -27.06993269	     49.81611656	     44.48893012	    111.51304960	     18.82868858	      0.74189211	    -30.44449320
      0.01500000	      1.26689582	      5.01597866	    -88.56191900	     -0.03295165	      0.96737166	      0.75553149	      9.01558927	     -0.77098003	    -10.71605363	    -10.99265095	      4.55799389	      6.62207201	      7.71138038	     -0.44296973	     -8.06687118	     -8.16121498	    -18.13905714	     -2.14826596	     22.55314662	     27.89350609	     -2.12616658	     -2.27532341	      3.19749217	     34.58515129	     -5.09144288	    -13.59083576	    -28.80756008	   -139.46107895	   -118.09377539	     55.03800690	    112.42068339	     24.49507354	     -7.37288879	    -39.10291175	    144.25265248	    -27.06524752	     49.81337160	     44.48926249	    111.51158104	     18.83721824	      0.73864640	    -30.44576008
